<svg preserveAspectRatio="xMidYMid" width="34" height="26" viewBox="0 0 34 26">
  <path fill="#1673E6" fillrule="evenodd" d="M31.393,14.865 L31.393,18.909 L28.415,18.909 L28.415,13.621 C28.415,12.762 29.109,12.066 29.966,12.066 L33.999,12.066 L33.999,14.865 L31.393,14.865 ZM5.829,24.134 L5.829,20.960 C5.829,20.960 10.173,22.950 16.998,22.950 C23.824,22.950 28.167,20.960 28.167,20.960 L28.167,24.134 C28.167,24.134 23.746,26.000 16.998,26.000 C10.250,26.000 5.829,24.134 5.829,24.134 ZM8.622,17.665 L5.829,2.799 C5.829,2.799 10.095,0.000 16.998,0.000 C23.901,0.000 28.167,2.799 28.167,2.799 L25.375,17.665 L8.622,17.665 ZM2.604,14.865 L-0.002,14.865 L-0.002,12.066 L4.031,12.066 C4.888,12.066 5.582,12.762 5.582,13.621 L5.582,18.909 L2.604,18.909 L2.604,14.865 Z"></path>
</svg>
