<svg xmlns="http://www.w3.org/2000/svg" xmlns:xlink="http://www.w3.org/1999/xlink" preserveAspectRatio="xMidYMid" width="14" height="25" viewBox="0 0 14 25">
  <path fill="#e1e1e1" d="M12.000,25.000 L2.000,25.000 C0.895,25.000 -0.000,24.105 -0.000,23.000 L-0.000,2.000 C-0.000,0.895 0.895,-0.000 2.000,-0.000 L12.000,-0.000 C13.105,-0.000 14.000,0.895 14.000,2.000 L14.000,23.000 C14.000,24.105 13.105,25.000 12.000,25.000 ZM7.000,23.000 C7.552,23.000 8.000,22.552 8.000,22.000 C8.000,21.448 7.552,21.000 7.000,21.000 C6.448,21.000 6.000,21.448 6.000,22.000 C6.000,22.552 6.448,23.000 7.000,23.000 ZM12.000,2.000 L2.000,2.000 L2.000,19.000 L12.000,19.000 L12.000,2.000 Z" class="cls-1"></path>
</svg>
